<svg xmlns="http://www.w3.org/2000/svg" xml:space="preserve" id="Layer_1" x="0" y="0" style="enable-background:new 0 0 274.9 71" version="1.1" viewBox="0 0 274.9 71">
  <style>
    .st0{fill:gray}.st1{fill:#0b489d}.st2{fill:#029377}
  </style>
  <linearGradient id="SVGID_1_" x1="-13.395" x2="-12.688" y1="383.588" y2="382.881" gradientUnits="userSpaceOnUse">
    <stop offset="0" style="stop-color:#339a2a"/>
    <stop offset=".983" style="stop-color:#121e0d"/>
  </linearGradient>
  <path d="M132.7 59.5c0 .2.1.3.3.4.2.1.4.2.7.2.3 0 .7-.1 1-.2.4-.2.7-.4.8-.7 0-.1.1-.2.1-.3 0-.2-.1-.3-.3-.5-.2-.1-.4-.2-.7-.2-.3 0-.7.1-1 .2-.4.2-.7.4-.8.7 0 .2-.1.3-.1.4zM186.3 64.9c-.2.3-.5.7-1 1-.5.4-1 .6-1.3.6-.2 0-.4-.1-.4-.3 0-.1 0-.2.1-.3l1.6-3.7-1.7-1.3-2 4.6c-.2.5-.5.8-.8.8-.2 0-.3-.1-.3-.3 0-.1 0-.3.1-.5l1.5-3.3-1.7-1-1.5 3.3c-.2.4-.3.8-.4 1.2-.1.1-.2.1-.2.2-.5.4-1 .6-1.3.6-.2 0-.3-.1-.3-.3 0-.1.1-.3.2-.6l1.7-3.8h-1.5l-.2.4-.1-.1c-.3-.4-.7-.6-1.3-.6-.8 0-1.5.3-2.2 1-.6.5-1.1 1.2-1.4 2-.2.4-.3.8-.4 1.2l-.2.2c-.5.4-1 .6-1.3.6-.2 0-.3-.1-.3-.3 0-.1 0-.2.1-.3l.8-1.8v-.2c0-.3-.1-.6-.4-.7l-3.7-2.1-2.2 4.9h-.3c-1 .7-2.1 1-3.3 1h-.5c-.2 0-.3-.1-.3-.3 0-.2 0-.3.1-.5l.4-1h1.8c.9 0 1.4-.3 1.7-1 .4-.9.6-1.6.6-1.9 0-.5-.3-.8-1.1-.8h-1.8c-.6 0-1.2.2-1.7.7-.5.4-.9.9-1.1 1.6l-.6 1.3c-.1.3-.2.6-.4.9-.5.4-.9.5-1.3.5-.2 0-.3-.1-.3-.3 0-.1 0-.2.1-.3l.9-2c.2-.5.3-.9.3-1.3 0-.8-.4-1.2-1.2-1.2-.8 0-1.5.2-2 .8l-1.6-.9-2.1 4.8c-.3.2-.7.4-1.1.6-.9.4-1.8.5-2.6.5-.4 0-.7-.1-.7-.4 0-.1.1-.3.1-.5l1-2.1c.4-.8 1.3-1.5 2.8-2l.2-.6c-.8-.5-1.2-.9-1.2-1.5 0-.1 0-.3.1-.4l.7-1.5c.2-.5.5-.7 1-.7.3 0 .6.1.6.3v.1l-.4.8 2.5-.9v-.3c0-.7-.6-1.1-2-1.1-.8 0-1.6.1-2.3.4h-.1c-.2-.2-.5-.3-.9-.3H144c-.3 0-.4.1-.4.4 0 .3.1.4.4.4h3.1c.2 0 .4.2.6.6v.1c-.1.2-.2.3-.3.5-.4.8-.5 1.3-.5 1.6 0 .3.1.7.4.9.3.3.6.4.9.5v.1c-.7.2-1.3.4-1.9.9-.7.5-1.1 1-1.4 1.6l-.3.8c-.3.6-.4 1.2-.4 1.6 0 .9.7 1.3 2.1 1.3h1.4c.7 0 1.5-.2 2.4-.7l.2-.1-.4.8h2.4l2.3-5.2c.1-.3.3-.4.6-.4.2 0 .3.1.3.3v.2l-1.6 3.5c-.1.3-.2.5-.2.7 0 .4.2.6.5.8.2.1.4.1.5.1.8 0 1.7-.3 2.7-.8.1-.1.2-.1.3-.2l.1-.1v.1c.1.6.7.9 1.8.9h1.4c.7 0 1.5-.3 2.5-.8.5-.3.9-.6 1.3-.9 1.2-.7 2-1.6 2.5-2.8.1-.3.3-.5.5-.5.1 0 .2 0 .3.1.1.1.2.2.2.3v.1l-1.2 2.8c-.1.2-.2.5-.2.7 0 .6.3.9 1.1.9s1.7-.3 2.7-.8c.3-.2.5-.3.8-.5l.1-.1v.1c.2.4.5.6 1 .7v.1c-1 .3-1.7.8-2.1 1.6-.1.2-.2.5-.2.6 0 .4.2.6.5.8.3.2.7.3 1.2.3.7 0 1.3-.2 1.9-.5.7-.4 1.1-.9 1.4-1.5l.7-1.5h.1c.1.1.3.1.4.1.5 0 1.1-.2 1.8-.7.1 0 .1-.1.2-.2l.1-.1v.1c.2.4.5.6 1.1.7v.1c-1 .3-1.7.8-2.1 1.6-.1.2-.2.4-.2.6 0 .4.2.6.5.8.3.2.7.3 1.2.3.7 0 1.3-.2 1.9-.5.7-.4 1.1-.9 1.4-1.5l.5-1.1c.7-.1 1.4-.4 2.2-.9.9-.5 1.4-1 1.7-1.6l-.5.3zm-24.8-2.1c.1-.3.3-.4.6-.4.2 0 .4.1.4.3v.1l-.7 1.5h-1l.7-1.5zm11.9 4.9c-.4.8-.6 1.4-.8 1.8-.1.2-.2.3-.5.3-.2 0-.3-.1-.3-.3v-.1c.2-.5.4-.8.5-1 .2-.3.5-.5.9-.8l.2-.1v.2zm2.2-4.9-1.2 2.6c-.2.5-.5.8-.8.8-.2 0-.3-.1-.3-.3 0-.1 0-.3.1-.5l1.2-2.7c.1-.3.3-.4.6-.4.2 0 .4.1.4.3.1.1.1.2 0 .2zm4.9 4.9c-.4.8-.6 1.4-.8 1.8-.1.2-.2.3-.5.3-.2 0-.3-.1-.3-.3v-.1c.2-.5.4-.8.5-1 .2-.3.5-.5.9-.8l.2-.1v.2z" class="st0"/>
  <path d="M139.9 66c-1 .7-2.1 1-3.3 1h-.6c-.2 0-.3-.1-.3-.3 0-.2 0-.3.1-.5l1.5-3.4c.1-.3.3-.4.6-.4.2 0 .4.1.4.3v.1l-.4.8 2.5-.9v-.4c0-.5-.3-.8-1.1-.8h-1.8c-.6 0-1.2.2-1.7.7-.5.4-.9.9-1.1 1.6l-.6 1.3c-.1.3-.3.6-.4.9-.5.3-.9.5-1.2.5-.2 0-.3-.1-.3-.3 0-.1 0-.2.1-.3l1.6-3.7-1.8-1-1.8 4c-.2.3-.6.6-1 .9-.6.4-1.1.5-1.6.5-.4 0-.6-.1-.6-.5 0-.1 0-.2.1-.4l1-2.1c1.6-.6 2.8-1.7 3.5-3.2l1.2-2.6c.1-.1.1-.2.1-.3 0-.3-.2-.6-.6-.8-.4-.2-.8-.2-1.2-.2-.6 0-1.2.2-1.7.5-.6.3-1 .8-1.3 1.4l-3.4 7.5c-.5.4-1 .6-1.3.6-.2 0-.3-.1-.3-.3 0-.1 0-.2.1-.3l1.6-3.7-1.9-1-2.3 5.2c-.2.5-.4.7-.7.7-.2 0-.3-.1-.3-.3 0-.2 0-.3.1-.5l2-4.4h-2.2l-1.5 3.3c-.1.2-.2.4-.2.6l-.3.3c-.5.4-1 .6-1.3.6-.2 0-.3-.1-.3-.3 0-.1 0-.2.1-.3.5-1.1.8-1.9 1.1-2.5l.7-1.7h-1.5l-.2.4-.1-.1c-.3-.4-.7-.6-1.3-.6-.8 0-1.5.3-2.2 1-.6.5-1.1 1.2-1.4 2l-.2.6-.3.6c-.1.1-.2.2-.3.2-.5.4-1 .6-1.3.6-.2 0-.3-.1-.3-.3 0-.1 0-.2.1-.3l.8-1.8V64c0-.3-.1-.6-.4-.7l-3.7-2.1-2.2 4.8h-.4c-.5.3-.9.5-1.3.5-.2 0-.3-.1-.3-.3v-.1l4.3-9.6h-2.4l-2.3 5.1h-.1c-.2-.1-.4-.1-.6-.1-.8 0-1.5.3-2.2.9-.6.5-1.1 1.2-1.4 2l-.2.6c-.1.2-.1.3-.2.5l-.3.3c-.5.4-1 .6-1.3.6-.2 0-.4-.1-.4-.3 0-.1 0-.2.1-.3l1.6-3.7-1.7-1.3-2 4.6c-.2.5-.5.8-.8.8-.2 0-.3-.1-.3-.3 0-.1 0-.3.1-.5l1.5-3.3-1.7-1-1.5 3.3c-.2.5-.4.9-.4 1.3l-.3.3c-.5.4-1 .6-1.4.6-.1 0-.2-.1-.2-.2v-.1l4.3-9.7h-2.4l-2.3 5.1h-2.1l1.6-3.6c.1-.2.2-.5.2-.6 0-.6-.6-.9-2.1-.9h-4.3c-.3 0-.4.1-.4.4 0 .3.1.4.4.4h3.1c.2 0 .3.1.4.2.1.1.2.2.2.4v.2L79.4 68H82l2.5-5.6h2.1l-1.9 4.2c-.1.1-.1.3-.1.4 0 .3.1.5.3.7.2.2.5.3.8.3.8 0 1.7-.3 2.7-.8.2-.1.5-.3.7-.4h.1v.1c.2.3.5.5 1 .6v.1c-1 .3-1.7.8-2.1 1.6-.1.2-.1.4-.1.6 0 .4.2.6.5.8.3.2.7.3 1.2.3.7 0 1.3-.2 1.9-.5.7-.4 1.1-.9 1.4-1.5l.5-1.1c.7-.1 1.4-.4 2.2-.9.1-.1.2-.1.3-.2l.1-.1v.1c0 .8.6 1.1 1.8 1.1.4 0 .8-.2 1.2-.5l.1-.1v.1c0 .3.2.4.7.4.8 0 1.7-.3 2.7-.8.5-.3 1-.6 1.3-.9 1.1-.7 1.9-1.6 2.4-2.7.1-.3.3-.5.5-.5.1 0 .2 0 .3.1.1.1.2.2.2.3v.1l-1.2 2.8c-.1.2-.2.5-.2.7 0 .6.3.9 1.1.9s1.7-.3 2.7-.8c.2-.1.4-.2.5-.3l.1-.1v.1c0 .7.6 1.1 1.8 1.1.5 0 1-.2 1.4-.6l.1-.1v.1c.1.3.2.5.6.5.8 0 1.7-.3 2.7-.8.2-.1.4-.2.5-.3l.1-.1v.1c0 .7.6 1.1 1.8 1.1.5 0 1-.2 1.4-.6l.1-.1v.1c.1.3.2.5.6.5.8 0 1.7-.3 2.7-.8.2-.1.3-.2.5-.3h.1v.1c.1.2.3.5.5.6.4.3.8.4 1.4.4.8 0 1.6-.2 2.4-.7.2-.1.4-.2.6-.4l.1-.1v.1c0 .3.1.5.3.7.2.2.4.3.7.3.8 0 1.7-.3 2.7-.8.1 0 .2-.1.3-.1l.1-.1v.1c.1.6.7.9 1.8.9h1.4c.7 0 1.5-.3 2.5-.8 1-.6 1.7-1.2 2-1.8l-.4-.5c-.3 1-.7 1.4-1.2 1.7zm-11-4c.8-1.8 1.4-3.1 1.8-4 .1-.2.3-.3.5-.3s.3.1.3.3v.1l-1.1 2.5c-.5.8-.9 1.4-1.5 1.4l-.1.1.1-.1zm-37.8 5.7c-.4.8-.6 1.4-.8 1.8-.1.2-.2.3-.5.3-.2 0-.3-.1-.3-.3v-.1c.2-.5.4-.8.5-1 .2-.3.5-.5.9-.8l.2-.1v.2zm7.8-1.1c-.1.3-.3.5-.6.5-.2 0-.3-.1-.3-.3 0-.1 0-.3.1-.4l1.6-3.5c.1-.2.3-.4.6-.4.1 0 .3 0 .3.2l-1.7 3.9zm16-3.8-1.5 3.5c-.2.5-.4.7-.7.7-.2 0-.3-.1-.3-.3 0-.2 0-.3.1-.5l1.5-3.4c.1-.3.3-.4.6-.4.2 0 .4.1.4.3-.1 0-.1.1-.1.1z" class="st0"/>
  <path d="M273.5 29c0-.4-.3-.7-.9-.7-.2 0-.5.1-.6.1v2.4h.4v-1.1h.1l.8 1.1h.4l-.9-1.1c.4-.1.7-.4.7-.7zm-1.1.4v-.8h.2c.2 0 .5.1.5.4 0 .4-.3.5-.6.5h-.1z" class="st1"/>
  <path d="M272.7 27.5c-1.2 0-2.1.9-2.1 2.1 0 1.2.9 2.1 2.1 2.1 1.2 0 2.1-.9 2.1-2.1.1-1.2-.9-2.1-2.1-2.1zm0 3.9c-1 0-1.8-.8-1.8-1.8s.8-1.8 1.8-1.8 1.8.8 1.8 1.8c.1 1-.8 1.8-1.8 1.8zM233.9 27c-7.4 0-12.6 3.7-12.6 9.7 0 5.4 6.3 8.9 12.7 8.9 7.1 0 9.3-1.7 9.3-4v-1.4c-2.1 1.3-5.5 1.7-8.1 1.7-3.8 0-6.7-1.4-7.2-3.7h4.2c8.5 0 12.1-1.1 12.1-4.3 0-4.2-5-6.9-10.4-6.9zm-3.1 8.1h-2.9v-.6c.1-2 2.3-3.8 5.4-3.8 3 0 4.9.9 4.9 2.7 0 1.3-1.4 1.7-7.4 1.7zM99 22.7v9.1H85.8v-9.1h-6.5v19.6c0 2 1.8 3 4 3h2.5v-9.7H99v6.7c0 2 1.9 3 3.8 3h2.6V22.7H99zM125.2 27.4c-.8 3.8-3.1 9-5.2 12.3-3.7-5.2-4.8-8.9-5.7-12.3h-6.6c.9 4.2 5.7 13 9.1 16.6-1.4 2.5-2.5 3.4-4.9 3.4h-3.3v.9c0 1.6 2.1 2.7 4.5 2.7 4.6 0 7.2-1.8 12-9.6 1.2-1.9 6.4-11.3 6.6-14h-6.5zM185.4 27.1c-7.6 0-12.5 3.6-12.5 9.3s4.9 9.2 12.5 9.2 12.4-3.5 12.4-9.2-4.8-9.3-12.4-9.3zm0 14.1c-4.2 0-5.9-1.6-5.9-4.8 0-3.2 1.7-4.8 5.9-4.8s5.9 1.6 5.9 4.8c0 3.2-1.7 4.8-5.9 4.8zM167.4 27.3c-6.8 0-9.5 3.4-9.5 7v9.5c0 .9 1.4 1.6 3.2 1.6 1.8 0 3.2-.7 3.2-1.6v-8.7c0-2.7 1.6-3.8 4.5-3.8 1.7 0 3 .3 4 .6v-2.1c-.1-1.5-2.6-2.5-5.4-2.5zM149.4 22.7v6.5c-1.7-1.4-3.8-2.1-6.1-2.1-7.6 0-12.3 3.8-12.3 9.5s4.7 9 12.3 9c7.6 0 12.4-3.5 12.4-9.3V22.6l-6.3.1zm-6.1 19c-4.2 0-5.7-1.9-5.7-5.1 0-3.2 1.5-5.4 5.7-5.4s5.9 2 5.9 5.2-1.7 5.3-5.9 5.3zM215.4 27.3c-.4 3.8-4 10.4-5.8 12.5-1.8-2.1-5.4-8.7-5.8-12.5h-6.4c.6 4.8 5 12.6 8.5 16.2 1.3 1.3 2.2 2 3.7 2s2.4-.6 3.7-2c3.5-3.7 7.9-11.4 8.5-16.2h-6.4zM257.5 26.8c-7.9 0-11.4 3.9-11.4 7.6v9.3c0 .9 1.4 1.6 3.2 1.6 1.7 0 3.3-.7 3.3-1.6l-.1-9c0-2.5 1.5-4 5-4 3.4 0 5 1.5 5 4l-.1 9c0 .9 1.6 1.6 3.3 1.6 1.7 0 3.2-.7 3.2-1.6v-9.3c0-3.8-3.5-7.6-11.4-7.6zM0 67.9h67.9V0H0v67.9zM2.2 2.2h63.6v63.6H2.2V2.2z" class="st1"/>
  <path d="M56.2 39.5c2 1.5 3.2 3.3 3.2 5.1 0 6-12.3 11-27.5 11-13.4 0-24.6-3.8-27-8.9v.2c0 6.4 13 11.5 29.1 11.5s29.1-5.2 29.1-11.5c0-2.8-2.6-5.4-6.9-7.4z" class="st1"/>
  <path d="M32.5 53.7c13.4 0 24.3-4.1 24.3-9.1 0-2.4-2.4-5-6.5-6.2 2.5 1.4 3.9 3.1 3.9 4.9 0 4.8-10.2 8.6-22.8 8.6-12.6 0-22.8-3.9-22.8-8.6v-.4c-.3.6-.4 1.1-.4 1.7-.1 5 10.8 9.1 24.3 9.1z" class="st1"/>
  <path d="M32.6 50.7c11 0 20-3.7 20-7.1 0-1.3-2.3-1.5-4-1.7-2.1-.3-1.7-1.7 1.7-.9 2.3.5 2.2-1.3-2-2-1.8-.3-4-.1-1.7-2.7 2.5-2.8 4-6.5 4-10.6 0-8.9-7.2-16.2-16.2-16.2-8.9 0-16.2 7.2-16.2 16.2 0 3.8 1 6.9 2.6 9.3l.1.1c4.7 7-3.7 2.3-1.5 6.3 1.7 3-5.7-1.1-3.2 1.8 2.5 2.8 9.7 4.6 3.9 3.3-6.2-1.4-7.2-4.6-7.4-5.6-.2.4-.4 1-.4 1.7 0 4.4 10.5 8.1 20.3 8.1zm13.8-6.4c2.1-.4 2.6 1-.5 2.2-3.1 1.1-6.4 2-9 1.9-2.4-.1 10.8-1.3 4-3.2-2.5-.7.1-3.2.9-4 2.7-3-.6 4.1 4.6 3.1zM28.2 16.2c1.8-1.2 3.9-1.9 6.2-1.9 6.3 0 11.3 5.1 11.3 11.3 0 2.9-1.1 5.6-3 7.6l-.1.1c-4.5 4.9-8.4 8.3-4.5 12.9-5.1-2.1-4.6-6.3-2.6-9.4-.4 0-.8.1-1.3.1-1 0-2-.1-2.9-.4-1.2 2.3-1.3 5 1.3 7.3-5.1-2.7-5.2-6-4.2-8.6-1.2-.7-2.3-1.7-3.1-2.8-.5 2-.2 3.9 1 6.5-4.9-4.7-6.9-16.9 1.9-22.7z" class="st1"/>
  <path d="M34.4 15.6c-3.2 0-6 1.5-7.9 3.8h15.7c-1.8-2.3-4.6-3.8-7.8-3.8zM34.4 35.7c3.2 0 6-1.5 7.9-3.8H26.5c1.9 2.3 4.7 3.8 7.9 3.8zM27.5 30.2l.7-3.7h4l-.7 3.7h1.7l1.3-7.5 1.1 6.3c.1.4.2.7.5.9.3.2.6.3 1.1.3.4 0 .8-.1 1.2-.3.4-.2.7-.5.9-.9l4.2-8h-1.9l-3.8 7.1c0 .1-.1.1-.1.2l-.1.1h-.1c-.1 0-.2-.1-.2-.3L36.1 21H33l-.6 3.7h-4L29 21h-3.6s1.8.5 1.6 1.6l-1.3 7.5h1.8z" class="st2"/>
</svg>